<mxfile host="app.diagrams.net" modified="2022-12-01T18:07:50.569Z" agent="5.0 (Macintosh)" etag="hlIugJGxDXj2cobwbmLQ" version="20.6.0" type="github">
  <diagram id="wtMj7vI80yQPvqa93BeU" name="Strona-1">
    <mxGraphModel dx="1426" dy="738" grid="1" gridSize="10" guides="1" tooltips="1" connect="1" arrows="1" fold="1" page="1" pageScale="1" pageWidth="1169" pageHeight="827" math="0" shadow="0">
      <root>
        <mxCell id="0" />
        <mxCell id="1" parent="0" />
      </root>
    </mxGraphModel>
  </diagram>
</mxfile>
